# xmcd
#
# Track frame offsets: 
#        150
#        12121
#        25543
#        33477
#        44777
#        59631
#        72515
#        84614
#        93320
#        102846
#        112295
#        122376
#        136141
#        146194
#        165015
#        176019
#        195889
#        221137
#        240054
#        248458
#        276125
#        286213
#        295347
#        313085
#
# Disc length: 4338 seconds
#
# Revision: 0
# Processed by: cddbd v1.5.1PL2 Copyright (c) Steve Scherf et al.
# Submitted via: ExactAudioCopy v0.95b3
#
DISCID=5410f018
DTITLE=Владимир Высоцкий - Золотая коллекция #1.1
DYEAR=1900
DGENRE=Folk
TTITLE0=Скалолазка
TTITLE1=Москва-Одесса
TTITLE2=Она была в Париже
TTITLE3=Ноль-семь
TTITLE4=Лирическая
TTITLE5=Корабли
TTITLE6=Ещё не вечер
TTITLE7=Куплеты Бенгальского
TTITLE8=Баллада о цветах, деревьях и миллионерах
TTITLE9=Песня о переселении душ
TTITLE10=Жираф
TTITLE11=Утренняя гимнастика
TTITLE12=Посещение музы или песенка гладиатора
TTITLE13=Кто за кем бежит
TTITLE14=Дом хрустальный
TTITLE15=Вариации на циганские темы
TTITLE16=Кони привередливые
TTITLE17=Песня о времени
TTITLE18=Песня о вольных стрелках
TTITLE19=Баллада о любви
TTITLE20=Песня о двух погибших лебедях
TTITLE21=Песня о ненависти
TTITLE22=Баллада о борьбе
TTITLE23=О двух автомобилях
EXTD=" Я все вопросы освещу сполна,\nДам любопытству удовлетворенье.\n
EXTD=Да! У меня француженка жена,\nНо русского она происхожденья.\nНет
EXTD=! У меня сейчас любовниц нет.\nА будут ли? Пока что не намерен.\n
EXTD=Не пью примерно около двух лет.\nЗапью ли вновь? Не знаю, не увер
EXTD=ен."
EXTT0=
EXTT1=
EXTT2=
EXTT3=
EXTT4=
EXTT5=
EXTT6=
EXTT7=
EXTT8=
EXTT9=
EXTT10=
EXTT11=
EXTT12=
EXTT13=
EXTT14=
EXTT15=
EXTT16=
EXTT17=
EXTT18=
EXTT19=
EXTT20=
EXTT21=
EXTT22=
EXTT23=
PLAYORDER=
